<mxfile host="65bd71144e">
    <diagram id="EV65yb_jjW9IthwbfgZv" name="Page-1">
        <mxGraphModel dx="948" dy="572" grid="1" gridSize="10" guides="1" tooltips="1" connect="1" arrows="1" fold="1" page="1" pageScale="1" pageWidth="827" pageHeight="1169" math="0" shadow="0">
            <root>
                <mxCell id="0"/>
                <mxCell id="1" parent="0"/>
                <mxCell id="HSNwQ3O_0nQfxcZKa0X5-3" style="edgeStyle=orthogonalEdgeStyle;rounded=1;orthogonalLoop=1;jettySize=auto;html=1;exitX=0.25;exitY=0;exitDx=0;exitDy=0;fontSize=13;shape=flexArrow;" parent="1" source="1uaCHu3Pwth4PD7MlHN_-7" target="B6evqfIJlXMsKJtfPlcZ-13" edge="1">
                    <mxGeometry relative="1" as="geometry"/>
                </mxCell>
                <mxCell id="HSNwQ3O_0nQfxcZKa0X5-4" style="edgeStyle=orthogonalEdgeStyle;rounded=1;orthogonalLoop=1;jettySize=auto;html=1;exitX=0.75;exitY=0;exitDx=0;exitDy=0;entryX=0.5;entryY=1;entryDx=0;entryDy=0;fontSize=13;shape=flexArrow;" parent="1" source="1uaCHu3Pwth4PD7MlHN_-7" target="HSNwQ3O_0nQfxcZKa0X5-1" edge="1">
                    <mxGeometry relative="1" as="geometry"/>
                </mxCell>
                <mxCell id="1uaCHu3Pwth4PD7MlHN_-7" value="" style="rounded=1;whiteSpace=wrap;html=1;" parent="1" vertex="1">
                    <mxGeometry x="121" y="390" width="550" height="360" as="geometry"/>
                </mxCell>
                <mxCell id="CsSf_i9l_TETdaVsCxi0-5" value="" style="edgeStyle=orthogonalEdgeStyle;rounded=1;orthogonalLoop=1;jettySize=auto;html=1;" parent="1" source="1uaCHu3Pwth4PD7MlHN_-1" target="B6evqfIJlXMsKJtfPlcZ-6" edge="1">
                    <mxGeometry relative="1" as="geometry"/>
                </mxCell>
                <mxCell id="1uaCHu3Pwth4PD7MlHN_-1" value="&lt;b&gt;&lt;font style=&quot;font-size: 13px&quot;&gt;BERT Embeddings&lt;/font&gt;&lt;/b&gt;" style="rounded=1;whiteSpace=wrap;html=1;" parent="1" vertex="1">
                    <mxGeometry x="176" y="660" width="440" height="50" as="geometry"/>
                </mxCell>
                <mxCell id="1uaCHu3Pwth4PD7MlHN_-12" value="&lt;b&gt;&lt;font style=&quot;font-size: 19px&quot;&gt;SHARED&lt;/font&gt;&lt;/b&gt;" style="text;html=1;strokeColor=none;fillColor=none;align=center;verticalAlign=middle;whiteSpace=wrap;rounded=1;" parent="1" vertex="1">
                    <mxGeometry x="132" y="400" width="100" height="40" as="geometry"/>
                </mxCell>
                <mxCell id="HSNwQ3O_0nQfxcZKa0X5-12" style="edgeStyle=orthogonalEdgeStyle;shape=flexArrow;rounded=1;orthogonalLoop=1;jettySize=auto;html=1;exitX=0.5;exitY=0;exitDx=0;exitDy=0;entryX=0.25;entryY=1;entryDx=0;entryDy=0;fontSize=19;" parent="1" source="1uaCHu3Pwth4PD7MlHN_-13" target="B6evqfIJlXMsKJtfPlcZ-8" edge="1">
                    <mxGeometry relative="1" as="geometry"/>
                </mxCell>
                <mxCell id="1uaCHu3Pwth4PD7MlHN_-13" value="&lt;b&gt;STATE&lt;/b&gt;" style="text;html=1;strokeColor=none;fillColor=none;align=center;verticalAlign=middle;whiteSpace=wrap;rounded=1;fontSize=19;" parent="1" vertex="1">
                    <mxGeometry x="222" y="930" width="73" height="30" as="geometry"/>
                </mxCell>
                <mxCell id="HSNwQ3O_0nQfxcZKa0X5-13" style="edgeStyle=orthogonalEdgeStyle;shape=flexArrow;rounded=1;orthogonalLoop=1;jettySize=auto;html=1;exitX=0.5;exitY=0;exitDx=0;exitDy=0;entryX=0.75;entryY=1;entryDx=0;entryDy=0;fontSize=19;" parent="1" source="1uaCHu3Pwth4PD7MlHN_-14" target="B6evqfIJlXMsKJtfPlcZ-8" edge="1">
                    <mxGeometry relative="1" as="geometry"/>
                </mxCell>
                <mxCell id="1uaCHu3Pwth4PD7MlHN_-14" value="&lt;b&gt;ACTION&lt;/b&gt;" style="text;html=1;strokeColor=none;fillColor=none;align=center;verticalAlign=middle;whiteSpace=wrap;rounded=1;fontSize=19;" parent="1" vertex="1">
                    <mxGeometry x="493.5" y="930" width="79" height="30" as="geometry"/>
                </mxCell>
                <mxCell id="CsSf_i9l_TETdaVsCxi0-6" value="" style="edgeStyle=orthogonalEdgeStyle;rounded=1;orthogonalLoop=1;jettySize=auto;html=1;" parent="1" source="B6evqfIJlXMsKJtfPlcZ-6" target="CsSf_i9l_TETdaVsCxi0-1" edge="1">
                    <mxGeometry relative="1" as="geometry"/>
                </mxCell>
                <mxCell id="B6evqfIJlXMsKJtfPlcZ-6" value="&lt;b&gt;&lt;font style=&quot;font-size: 13px&quot;&gt;LSTM&lt;/font&gt;&lt;/b&gt;" style="rounded=1;whiteSpace=wrap;html=1;" parent="1" vertex="1">
                    <mxGeometry x="176" y="555" width="440" height="60" as="geometry"/>
                </mxCell>
                <mxCell id="B6evqfIJlXMsKJtfPlcZ-8" value="" style="rounded=1;whiteSpace=wrap;html=1;fontSize=13;" parent="1" vertex="1">
                    <mxGeometry x="120" y="820" width="551" height="60" as="geometry"/>
                </mxCell>
                <mxCell id="B6evqfIJlXMsKJtfPlcZ-10" value="" style="shape=flexArrow;endArrow=classic;html=1;rounded=1;fontSize=13;exitX=0.75;exitY=0;exitDx=0;exitDy=0;entryX=0.75;entryY=1;entryDx=0;entryDy=0;" parent="1" source="B6evqfIJlXMsKJtfPlcZ-8" edge="1">
                    <mxGeometry width="50" height="50" relative="1" as="geometry">
                        <mxPoint x="372" y="800" as="sourcePoint"/>
                        <mxPoint x="533.5" y="750" as="targetPoint"/>
                    </mxGeometry>
                </mxCell>
                <mxCell id="B6evqfIJlXMsKJtfPlcZ-11" value="" style="shape=flexArrow;endArrow=classic;html=1;rounded=1;fontSize=13;exitX=0.25;exitY=0;exitDx=0;exitDy=0;entryX=0.25;entryY=1;entryDx=0;entryDy=0;" parent="1" source="B6evqfIJlXMsKJtfPlcZ-8" edge="1">
                    <mxGeometry width="50" height="50" relative="1" as="geometry">
                        <mxPoint x="372" y="800" as="sourcePoint"/>
                        <mxPoint x="258.5000000000002" y="750" as="targetPoint"/>
                    </mxGeometry>
                </mxCell>
                <mxCell id="B6evqfIJlXMsKJtfPlcZ-12" value="&lt;b&gt;&lt;font style=&quot;font-size: 19px&quot;&gt;TOKENIZER&lt;/font&gt;&lt;/b&gt;" style="text;html=1;strokeColor=none;fillColor=none;align=center;verticalAlign=middle;whiteSpace=wrap;rounded=1;" parent="1" vertex="1">
                    <mxGeometry x="319" y="830" width="154" height="40" as="geometry"/>
                </mxCell>
                <mxCell id="HSNwQ3O_0nQfxcZKa0X5-7" style="edgeStyle=orthogonalEdgeStyle;shape=flexArrow;rounded=1;orthogonalLoop=1;jettySize=auto;html=1;exitX=0.5;exitY=0;exitDx=0;exitDy=0;entryX=0.25;entryY=1;entryDx=0;entryDy=0;fontSize=13;" parent="1" source="B6evqfIJlXMsKJtfPlcZ-13" target="B6evqfIJlXMsKJtfPlcZ-14" edge="1">
                    <mxGeometry relative="1" as="geometry"/>
                </mxCell>
                <mxCell id="B6evqfIJlXMsKJtfPlcZ-13" value="&lt;b&gt;&lt;font style=&quot;font-size: 19px&quot;&gt;STATE&lt;/font&gt;&lt;br&gt;Fully Connected&lt;br&gt;&lt;/b&gt;" style="rounded=1;whiteSpace=wrap;html=1;fontSize=13;" parent="1" vertex="1">
                    <mxGeometry x="199" y="270" width="120" height="60" as="geometry"/>
                </mxCell>
                <mxCell id="HSNwQ3O_0nQfxcZKa0X5-8" style="edgeStyle=orthogonalEdgeStyle;shape=flexArrow;rounded=1;orthogonalLoop=1;jettySize=auto;html=1;exitX=0.5;exitY=0;exitDx=0;exitDy=0;fontSize=13;" parent="1" source="B6evqfIJlXMsKJtfPlcZ-14" edge="1">
                    <mxGeometry relative="1" as="geometry">
                        <mxPoint x="396" y="90" as="targetPoint"/>
                    </mxGeometry>
                </mxCell>
                <mxCell id="B6evqfIJlXMsKJtfPlcZ-14" value="&lt;b&gt;&lt;font style=&quot;font-size: 19px&quot;&gt;OUTPUT&lt;/font&gt;&lt;br&gt;Fully Connected&lt;/b&gt;" style="rounded=1;whiteSpace=wrap;html=1;fontSize=13;" parent="1" vertex="1">
                    <mxGeometry x="199" y="150" width="393" height="60" as="geometry"/>
                </mxCell>
                <mxCell id="HSNwQ3O_0nQfxcZKa0X5-6" style="edgeStyle=orthogonalEdgeStyle;shape=flexArrow;rounded=1;orthogonalLoop=1;jettySize=auto;html=1;exitX=0.5;exitY=0;exitDx=0;exitDy=0;entryX=0.75;entryY=1;entryDx=0;entryDy=0;fontSize=13;" parent="1" source="HSNwQ3O_0nQfxcZKa0X5-1" target="B6evqfIJlXMsKJtfPlcZ-14" edge="1">
                    <mxGeometry relative="1" as="geometry"/>
                </mxCell>
                <mxCell id="HSNwQ3O_0nQfxcZKa0X5-1" value="&lt;b&gt;&lt;font style=&quot;font-size: 19px&quot;&gt;ACTION&lt;/font&gt;&lt;br&gt;Fully Connected&lt;br&gt;&lt;/b&gt;" style="rounded=1;whiteSpace=wrap;html=1;fontSize=13;" parent="1" vertex="1">
                    <mxGeometry x="473" y="270" width="120" height="60" as="geometry"/>
                </mxCell>
                <mxCell id="CsSf_i9l_TETdaVsCxi0-1" value="&lt;b&gt;&lt;font style=&quot;font-size: 13px&quot;&gt;Fully Connected&lt;/font&gt;&lt;/b&gt;" style="rounded=1;whiteSpace=wrap;html=1;" parent="1" vertex="1">
                    <mxGeometry x="176" y="440" width="440" height="60" as="geometry"/>
                </mxCell>
                <mxCell id="CsSf_i9l_TETdaVsCxi0-4" style="edgeStyle=orthogonalEdgeStyle;rounded=1;orthogonalLoop=1;jettySize=auto;html=1;exitX=1;exitY=0.5;exitDx=0;exitDy=0;entryX=0;entryY=0.5;entryDx=0;entryDy=0;dashed=1;" parent="1" source="B6evqfIJlXMsKJtfPlcZ-6" target="B6evqfIJlXMsKJtfPlcZ-6" edge="1">
                    <mxGeometry relative="1" as="geometry">
                        <Array as="points">
                            <mxPoint x="630" y="585"/>
                            <mxPoint x="630" y="540"/>
                            <mxPoint x="160" y="540"/>
                            <mxPoint x="160" y="585"/>
                        </Array>
                    </mxGeometry>
                </mxCell>
                <mxCell id="CsSf_i9l_TETdaVsCxi0-7" value="h&lt;sub&gt;t&amp;nbsp;&lt;/sub&gt;&amp;nbsp; (B,T,D*hidden_size)" style="text;html=1;strokeColor=none;fillColor=none;align=center;verticalAlign=middle;whiteSpace=wrap;rounded=1;" parent="1" vertex="1">
                    <mxGeometry x="390" y="500" width="156" height="30" as="geometry"/>
                </mxCell>
                <mxCell id="CsSf_i9l_TETdaVsCxi0-8" value="(B,L&lt;sub&gt;1&lt;/sub&gt;)" style="text;html=1;strokeColor=none;fillColor=none;align=center;verticalAlign=middle;whiteSpace=wrap;rounded=1;" parent="1" vertex="1">
                    <mxGeometry x="228.5" y="950" width="60" height="30" as="geometry"/>
                </mxCell>
                <mxCell id="CsSf_i9l_TETdaVsCxi0-9" value="(B,L&lt;sub&gt;2&lt;/sub&gt;)" style="text;html=1;strokeColor=none;fillColor=none;align=center;verticalAlign=middle;whiteSpace=wrap;rounded=1;" parent="1" vertex="1">
                    <mxGeometry x="503" y="950" width="60" height="30" as="geometry"/>
                </mxCell>
                <mxCell id="CsSf_i9l_TETdaVsCxi0-10" value="(B,T&lt;sub&gt;2&lt;/sub&gt;)" style="text;html=1;strokeColor=none;fillColor=none;align=center;verticalAlign=middle;whiteSpace=wrap;rounded=1;" parent="1" vertex="1">
                    <mxGeometry x="536" y="770" width="60" height="30" as="geometry"/>
                </mxCell>
                <mxCell id="CsSf_i9l_TETdaVsCxi0-11" value="(B,T&lt;sub&gt;1&lt;/sub&gt;)" style="text;html=1;strokeColor=none;fillColor=none;align=center;verticalAlign=middle;whiteSpace=wrap;rounded=1;" parent="1" vertex="1">
                    <mxGeometry x="260" y="770" width="60" height="30" as="geometry"/>
                </mxCell>
                <mxCell id="CsSf_i9l_TETdaVsCxi0-12" value="(B,T,E)" style="text;html=1;strokeColor=none;fillColor=none;align=center;verticalAlign=middle;whiteSpace=wrap;rounded=1;" parent="1" vertex="1">
                    <mxGeometry x="390" y="620" width="60" height="30" as="geometry"/>
                </mxCell>
                <mxCell id="CsSf_i9l_TETdaVsCxi0-14" value="(B, out_features)" style="text;html=1;strokeColor=none;fillColor=none;align=center;verticalAlign=middle;whiteSpace=wrap;rounded=1;" parent="1" vertex="1">
                    <mxGeometry x="390" y="405" width="100" height="30" as="geometry"/>
                </mxCell>
                <mxCell id="CsSf_i9l_TETdaVsCxi0-15" value="(B,T)" style="text;html=1;strokeColor=none;fillColor=none;align=center;verticalAlign=middle;whiteSpace=wrap;rounded=1;" parent="1" vertex="1">
                    <mxGeometry x="390" y="710" width="60" height="30" as="geometry"/>
                </mxCell>
                <mxCell id="CsSf_i9l_TETdaVsCxi0-16" value="&lt;div&gt;B: batch size&lt;/div&gt;&lt;div&gt;L: sequence length&lt;/div&gt;&lt;div&gt;T: sequence tokens length&lt;/div&gt;&lt;div&gt;E: embeddings size&lt;/div&gt;&lt;div&gt;D: 2 if bidirectional LSTM, 1 otherwise&lt;/div&gt;&lt;div&gt;&lt;br&gt;&lt;/div&gt;" style="text;html=1;strokeColor=none;fillColor=none;align=left;verticalAlign=middle;whiteSpace=wrap;rounded=1;" parent="1" vertex="1">
                    <mxGeometry x="606" y="860" width="221" height="160" as="geometry"/>
                </mxCell>
                <mxCell id="CsSf_i9l_TETdaVsCxi0-19" value="(B, shared_out_dim)" style="text;html=1;strokeColor=none;fillColor=none;align=center;verticalAlign=middle;whiteSpace=wrap;rounded=1;" parent="1" vertex="1">
                    <mxGeometry x="536" y="350" width="140" height="30" as="geometry"/>
                </mxCell>
                <mxCell id="CsSf_i9l_TETdaVsCxi0-20" value="(B, shared_out_dim)" style="text;html=1;strokeColor=none;fillColor=none;align=center;verticalAlign=middle;whiteSpace=wrap;rounded=1;" parent="1" vertex="1">
                    <mxGeometry x="260" y="350" width="140" height="30" as="geometry"/>
                </mxCell>
                <mxCell id="CsSf_i9l_TETdaVsCxi0-21" value="(B, state_layers)" style="text;html=1;strokeColor=none;fillColor=none;align=center;verticalAlign=middle;whiteSpace=wrap;rounded=1;" parent="1" vertex="1">
                    <mxGeometry x="300" y="230" width="110" height="30" as="geometry"/>
                </mxCell>
                <mxCell id="CsSf_i9l_TETdaVsCxi0-22" value="(B, action_layers)" style="text;html=1;strokeColor=none;fillColor=none;align=center;verticalAlign=middle;whiteSpace=wrap;rounded=1;" parent="1" vertex="1">
                    <mxGeometry x="520" y="230" width="140" height="30" as="geometry"/>
                </mxCell>
                <mxCell id="CsSf_i9l_TETdaVsCxi0-23" value="(B)" style="text;html=1;strokeColor=none;fillColor=none;align=center;verticalAlign=middle;whiteSpace=wrap;rounded=1;" parent="1" vertex="1">
                    <mxGeometry x="326" y="60" width="140" height="30" as="geometry"/>
                </mxCell>
            </root>
        </mxGraphModel>
    </diagram>
</mxfile>